<svg width="11" height="11" viewBox="0 0 11 11" fill="none" xmlns="http://www.w3.org/2000/svg">
<path d="M5.50016 0.083252C2.521 0.083252 0.0834961 2.52075 0.0834961 5.49992C0.0834961 8.47908 2.521 10.9166 5.50016 10.9166C8.47933 10.9166 10.9168 8.47908 10.9168 5.49992C10.9168 2.52075 8.47933 0.083252 5.50016 0.083252ZM5.50016 9.83325C3.11141 9.83325 1.16683 7.88867 1.16683 5.49992C1.16683 3.11117 3.11141 1.16659 5.50016 1.16659C7.88891 1.16659 9.8335 3.11117 9.8335 5.49992C9.8335 7.88867 7.88891 9.83325 5.50016 9.83325ZM5.771 2.79158H4.9585V6.04158L7.77516 7.77492L8.2085 7.07075L5.771 5.60825V2.79158Z" fill="#CCFF00"/>
</svg>
