<?xml version="1.0" encoding="UTF-8"?>
<svg version="1.1" xmlns="http://www.w3.org/2000/svg" width="300" height="300">
<path d="M0 0 C2.83183112 1.56390124 5.67993994 3.0945673 8.5324707 4.62036133 C19.10449556 10.29061368 29.57564753 15.97308581 39.6652832 22.47192383 C40.9955949 23.30852554 42.32635444 24.14441537 43.6574707 24.97973633 C65.2621039 38.63281845 89.24756663 54.47319475 101.6652832 77.47192383 C101.6652832 78.13192383 101.6652832 78.79192383 101.6652832 79.47192383 C98.09752558 80.27634517 95.21468674 80.43768019 91.6652832 79.47192383 C88.54157326 76.34294624 86.24540563 72.73940588 83.80395508 69.0793457 C55.15632909 28.63852892 -25.99378724 -10.24282531 -73.4597168 -19.96557617 C-83.64584498 -21.41384084 -94.34307223 -21.49780776 -103.0222168 -15.21557617 C-123.58779091 4.47693111 -121.23277096 45.84700174 -121.8972168 71.90942383 C-122.0415918 77.37504883 -122.1859668 82.84067383 -122.3347168 88.47192383 C-105.5047168 88.47192383 -88.6747168 88.47192383 -71.3347168 88.47192383 C-69.0247168 96.72192383 -66.7147168 104.97192383 -64.3347168 113.47192383 C-63.03304715 110.86858454 -62.91082822 108.58393353 -62.58203125 105.68505859 C-62.4411055 104.46119949 -62.30017975 103.23734039 -62.15498352 101.97639465 C-62.08077997 101.31649851 -62.00657642 100.65660236 -61.93012428 99.97670937 C-61.69452172 97.88242884 -61.45428832 95.78872533 -61.21281433 93.69511414 C-60.86757747 90.69898187 -60.52404642 87.70266176 -60.18188477 84.70617676 C-56.96560819 56.56826823 -53.47509673 28.49103871 -49.3347168 0.47192383 C-46.59732908 3.20931154 -46.7172413 5.26514645 -46.16479492 9.0871582 C-46.06333035 9.77274024 -45.96186577 10.45832228 -45.85732651 11.16467953 C-45.5190224 13.46393827 -45.1925992 15.76473029 -44.8659668 18.06567383 C-44.62762022 19.70039406 -44.38848777 21.33499988 -44.14862061 22.96949768 C-43.63600706 26.47282644 -43.12845268 29.97683648 -42.62487793 33.48147583 C-41.83543356 38.97484717 -41.03510317 44.46659261 -40.23217773 49.95800781 C-39.96111319 51.81242262 -39.69005609 53.66683852 -39.41900635 55.52125549 C-39.28415077 56.44376162 -39.1492952 57.36626774 -39.01035309 58.31672859 C-38.59818334 61.13904753 -38.18711118 63.96152447 -37.77630615 66.78404236 C-35.22203778 84.32222258 -32.58182878 101.84691393 -29.91439819 119.36819458 C-29.4755952 122.25142637 -29.03757481 125.13477682 -28.59955978 128.0181284 C-27.51314279 135.16967763 -26.42489202 142.32094648 -25.3347168 149.47192383 C-23.26940903 147.40661606 -23.57466732 143.3136762 -23.22729492 140.46728516 C-23.12146591 139.62821625 -23.0156369 138.78914734 -22.90660095 137.9246521 C-22.55572172 135.13490532 -22.21088957 132.34444404 -21.8659668 129.55395508 C-21.6235775 127.61914535 -21.3807743 125.68438743 -21.13757324 123.74967957 C-20.4963986 118.64127592 -19.86017181 113.53226848 -19.22515869 108.4230957 C-18.20995866 100.26213796 -17.18709334 92.10213709 -16.16465759 83.94208336 C-15.80819412 81.09175535 -15.45367249 78.24119113 -15.0994873 75.39057922 C-14.88040274 73.63489392 -14.66128811 71.87921236 -14.44213867 70.12353516 C-14.29560097 68.93797783 -14.29560097 68.93797783 -14.14610291 67.72846985 C-13.63236457 63.6243811 -13.04859494 59.54731537 -12.3347168 55.47192383 C-11.6747168 55.80192383 -11.0147168 56.13192383 -10.3347168 56.47192383 C-9.56271362 58.83204651 -9.56271362 58.83204651 -8.82250977 62.00146484 C-8.5423703 63.18261368 -8.26223083 64.36376251 -7.97360229 65.58070374 C-7.67769196 66.86609543 -7.38178162 68.15148712 -7.0769043 69.47583008 C-6.76660604 70.79736628 -6.45557179 72.11872987 -6.14382935 73.43992615 C-5.32435058 76.9218399 -4.51492082 80.40601587 -3.70751953 83.89074707 C-2.88224478 87.44460923 -2.0475459 90.99625486 -1.21362305 94.5480957 C0.42194207 101.52056289 2.04690378 108.49544529 3.6652832 115.47192383 C7.86316627 107.0761577 9.29586148 97.55470709 11.6652832 88.47192383 C42.3552832 88.47192383 73.0452832 88.47192383 104.6652832 88.47192383 C104.6652832 106.9148853 97.63971746 117.65195637 84.9777832 130.53442383 C78.66052272 136.76492539 71.79428531 142.20632953 64.6652832 147.47192383 C64.01962402 147.95129395 63.37396484 148.43066406 62.70874023 148.92456055 C52.38364119 156.53847385 41.64870935 163.27579375 30.5847168 169.75610352 C27.30800699 171.68190353 24.04260024 173.62632592 20.77856445 175.57348633 C18.97792753 176.6462322 17.17709469 177.71864821 15.37615967 178.79089355 C13.65598525 179.81524247 11.93626174 180.84034845 10.21655273 181.86547852 C-9.34634717 193.47192383 -9.34634717 193.47192383 -12.3347168 193.47192383 C-12.41603143 192.03536529 -12.47405239 190.59747553 -12.5222168 189.15942383 C-12.57442383 187.95866211 -12.57442383 187.95866211 -12.62768555 186.73364258 C-12.26022206 183.89682445 -11.45529508 183.32484449 -9.3347168 181.47192383 C-7.65917969 180.40380859 -7.65917969 180.40380859 -5.80737305 179.41333008 C-5.10797607 179.03378174 -4.4085791 178.6542334 -3.68798828 178.26318359 C-2.93203369 177.85769287 -2.1760791 177.45220215 -1.3972168 177.03442383 C24.75191591 162.74395868 51.01761904 146.95531466 73.6652832 127.47192383 C74.97432617 126.38137695 74.97432617 126.38137695 76.30981445 125.26879883 C85.62667345 117.27892875 90.0678394 109.96553334 94.6652832 98.47192383 C69.5852832 98.14192383 44.5052832 97.81192383 18.6652832 97.47192383 C18.0052832 101.43192383 17.3452832 105.39192383 16.6652832 109.47192383 C15.85708265 113.13469661 15.02458516 116.77531762 14.1340332 120.41723633 C13.89744995 121.39433563 13.6608667 122.37143494 13.41711426 123.37814331 C12.92183647 125.41711038 12.42430112 127.45553034 11.92456055 129.4934082 C11.15908142 132.62227336 10.40604832 135.75397366 9.65356445 138.88598633 C9.16863516 140.87575206 8.68298462 142.86534218 8.1965332 144.85473633 C7.97251831 145.79108917 7.74850342 146.72744202 7.5177002 147.69216919 C7.30407837 148.55421967 7.09045654 149.41627014 6.87036133 150.30444336 C6.68542114 151.06322784 6.50048096 151.82201233 6.30993652 152.60379028 C5.6652832 154.47192383 5.6652832 154.47192383 3.6652832 156.47192383 C-0.98091481 140.98459712 -4.5130905 125.18305418 -8.3347168 109.47192383 C-13.2847168 148.08192383 -18.2347168 186.69192383 -23.3347168 226.47192383 C-23.9947168 226.47192383 -24.6547168 226.47192383 -25.3347168 226.47192383 C-27.3185972 213.11604505 -29.30118094 199.75997443 -31.28226662 186.4036808 C-32.20296371 180.19668503 -33.12404946 173.98974753 -34.04614258 167.78295898 C-38.56573585 137.35850887 -43.03059721 106.92766405 -47.3347168 76.47192383 C-47.6647168 76.47192383 -47.9947168 76.47192383 -48.3347168 76.47192383 C-48.51930702 78.03380684 -48.51930702 78.03380684 -48.70762634 79.62724304 C-49.8677964 89.441605 -51.03007576 99.25571516 -52.19441891 109.06958294 C-52.7929457 114.11494865 -53.39072986 119.16040004 -53.98681641 124.20605469 C-54.56213263 129.07566159 -55.13940017 133.94503356 -55.71801949 138.81424904 C-55.93839545 140.67168767 -56.15806901 142.52920977 -56.37702751 144.38681602 C-56.68389833 146.98922183 -56.99326843 149.59131926 -57.30322266 152.19335938 C-57.39313477 152.96084503 -57.48304687 153.72833069 -57.57568359 154.51907349 C-58.01777803 158.20850423 -58.53721556 161.84160698 -59.3347168 165.47192383 C-61.3347168 164.47192383 -61.3347168 164.47192383 -62.22061157 161.94216919 C-62.51817352 160.81648529 -62.81573547 159.69080139 -63.12231445 158.53100586 C-63.46251617 157.25943634 -63.8027179 155.98786682 -64.15322876 154.67776489 C-64.51869375 153.27849552 -64.88387026 151.87915078 -65.2487793 150.47973633 C-65.62646517 149.05329766 -66.00475883 147.6270198 -66.38363647 146.20089722 C-67.17701928 143.20773459 -67.96496163 140.21321068 -68.7487793 137.2175293 C-69.75401154 133.37624762 -70.76953774 129.53778591 -71.78876686 125.70019722 C-72.57075677 122.7533627 -73.34880253 119.80549899 -74.12549973 116.85726547 C-74.49863319 115.44164274 -74.87263559 114.02624875 -75.24751663 112.6110878 C-75.77075995 110.63223747 -76.28905601 108.65215867 -76.8059082 106.67163086 C-77.10187897 105.54435577 -77.39784973 104.41708069 -77.70278931 103.25564575 C-78.3347168 100.47192383 -78.3347168 100.47192383 -78.3347168 97.47192383 C-95.8247168 97.47192383 -113.3147168 97.47192383 -131.3347168 97.47192383 C-131.81655236 14.35528903 -131.81655236 14.35528903 -119.3347168 -8.52807617 C-118.84487305 -9.47424805 -118.3550293 -10.42041992 -117.8503418 -11.39526367 C-112.81154157 -20.2491555 -105.76683867 -26.44011943 -95.9597168 -29.52807617 C-63.62972716 -36.50478762 -27.29481495 -15.09319822 0 0 Z " fill="#ED8221" transform="translate(168.334716796875,57.528076171875)"/>
<path d="M0 0 C2.05078125 0.03255208 4.1015625 0.06510417 6.15234375 0.09765625 C6.22227539 1.17321777 6.29220703 2.2487793 6.36425781 3.35693359 C6.83040872 53.02444195 6.83040872 53.02444195 27.52734375 95.53515625 C35.59498939 101.69939632 44.27159687 102.25682516 54.15234375 101.09765625 C64.81729171 99.25697034 74.9333652 95.68873844 84.81005859 91.33374023 C89.88479757 89.09765625 89.88479757 89.09765625 93.15234375 89.09765625 C93.15234375 92.06765625 93.15234375 95.03765625 93.15234375 98.09765625 C85.06563799 102.29512796 76.79346637 105.25887589 68.15234375 108.09765625 C66.59966797 108.61779297 66.59966797 108.61779297 65.015625 109.1484375 C53.85185544 112.43373091 38.83813491 113.38096564 28.15234375 108.09765625 C14.7885899 100.13729746 8.28497839 86.53029444 4.40234375 71.97265625 C-1.27350218 49.27607809 -4.04415615 24.46064759 -2.84765625 1.09765625 C-1.84765625 0.09765625 -1.84765625 0.09765625 0 0 Z " fill="#ED8323" transform="translate(39.84765625,164.90234375)"/>
<path d="M0 0 C0.66 0.33 1.32 0.66 2 1 C-1.3 4.3 -4.6 7.6 -8 11 C-8 7.0234755 -6.61988497 5.9109833 -4 3 C-1.75 1.1875 -1.75 1.1875 0 0 Z " fill="#C08A59" transform="translate(62,33)"/>
<path d="M0 0 C2 2 2 2 2.125 5.625 C2.08375 6.73875 2.0425 7.8525 2 9 C1.34 9 0.68 9 0 9 C-0.33 9.99 -0.66 10.98 -1 12 C-1.08159574 7.83861737 -0.98248524 4.0527516 0 0 Z " fill="#BB9A7B" transform="translate(119,58)"/>
</svg>
